<?xml version="1.0" standalone="no"?>
<!DOCTYPE svg PUBLIC "-//W3C//DTD SVG 20010904//EN"
 "http://www.w3.org/TR/2001/REC-SVG-20010904/DTD/svg10.dtd">
<svg version="1.0" xmlns="http://www.w3.org/2000/svg"
 width="200.000000pt" height="64.000000pt" viewBox="0 0 200.000000 64.000000"
 preserveAspectRatio="xMidYMid meet">

<g transform="translate(0.000000,64.000000) scale(0.100000,-0.100000)"
fill="#000000" stroke="none">
<path d="M480 550 c0 -5 5 -10 10 -10 6 0 10 5 10 10 0 6 -4 10 -10 10 -5 0
-10 -4 -10 -10z"/>
<path d="M285 540 c-3 -5 -1 -10 4 -10 6 0 11 5 11 10 0 6 -2 10 -4 10 -3 0
-8 -4 -11 -10z"/>
<path d="M390 520 c0 -5 7 -10 15 -10 8 0 15 5 15 10 0 6 -7 10 -15 10 -8 0
-15 -4 -15 -10z"/>
<path d="M210 500 c0 -5 5 -10 10 -10 6 0 10 5 10 10 0 6 -4 10 -10 10 -5 0
-10 -4 -10 -10z"/>
<path d="M310 490 c0 -5 7 -10 15 -10 8 0 15 5 15 10 0 6 -7 10 -15 10 -8 0
-15 -4 -15 -10z"/>
<path d="M500 490 c0 -5 6 -10 14 -10 8 0 18 5 21 10 3 6 -3 10 -14 10 -12 0
-21 -4 -21 -10z"/>
<path d="M420 464 c0 -9 7 -14 17 -12 25 5 28 28 4 28 -12 0 -21 -6 -21 -16z"/>
<path d="M245 459 c-10 -15 3 -25 16 -12 7 7 7 13 1 17 -6 3 -14 1 -17 -5z"/>
<path d="M616 461 c-4 -5 -2 -12 3 -15 5 -4 12 -2 15 3 4 5 2 12 -3 15 -5 4
-12 2 -15 -3z"/>
<path d="M340 434 c0 -9 7 -14 17 -12 25 5 28 28 4 28 -12 0 -21 -6 -21 -16z"/>
<path d="M533 438 c2 -7 10 -13 17 -13 7 0 15 6 18 13 2 7 -5 12 -18 12 -13 0
-20 -5 -17 -12z"/>
<path d="M180 415 c0 -8 5 -15 10 -15 6 0 10 7 10 15 0 8 -4 15 -10 15 -5 0
-10 -7 -10 -15z"/>
<path d="M447 423 c-14 -13 -6 -23 18 -23 16 0 25 6 25 15 0 15 -31 21 -43 8z"/>
<path d="M1160 423 c-38 -14 -50 -36 -50 -90 0 -63 23 -93 70 -93 46 0 70 31
70 89 0 68 -42 111 -90 94z m65 -66 c17 -70 -31 -121 -74 -78 -23 23 -27 55
-11 96 8 22 15 26 42 23 29 -3 34 -8 43 -41z"/>
<path d="M1673 420 c-29 -12 -43 -40 -43 -90 0 -72 64 -112 118 -74 18 13 22
24 22 72 0 63 -5 74 -37 91 -25 13 -30 13 -60 1z m67 -39 c23 -44 4 -121 -31
-121 -32 0 -49 22 -49 65 0 24 3 50 6 59 9 23 61 21 74 -3z"/>
<path d="M1842 420 c-29 -12 -45 -55 -38 -105 9 -71 74 -98 121 -50 14 13 25
36 25 50 0 22 -4 25 -35 25 -19 0 -35 -4 -35 -10 0 -5 9 -10 20 -10 26 0 27
-36 1 -50 -27 -14 -37 -13 -55 6 -19 18 -22 94 -4 112 17 17 67 15 74 -3 8
-19 24 -20 24 -1 0 30 -59 52 -98 36z"/>
<path d="M267 413 c-13 -12 -7 -23 13 -23 11 0 20 7 20 15 0 15 -21 21 -33 8z"/>
<path d="M942 333 l3 -88 42 -3 c59 -4 93 29 93 90 0 68 -20 88 -86 88 l-55 0
3 -87z m97 53 c7 -8 11 -36 9 -63 -3 -48 -3 -48 -40 -51 l-38 -3 0 65 0 66 29
0 c16 0 34 -6 40 -14z"/>
<path d="M1270 411 c0 -5 12 -11 28 -13 27 -3 27 -4 30 -80 4 -103 22 -101 22
2 0 79 0 80 25 80 14 0 25 5 25 10 0 6 -28 10 -65 10 -36 0 -65 -4 -65 -9z"/>
<path d="M1430 399 c0 -43 32 -160 43 -156 6 2 17 23 24 47 7 23 14 45 17 47
2 2 12 -18 21 -46 18 -55 32 -64 40 -28 26 113 32 157 20 157 -7 0 -17 -25
-24 -60 -7 -33 -14 -60 -16 -60 -2 0 -9 18 -15 40 -10 37 -39 57 -40 28 -1 -7
-7 -26 -14 -43 l-13 -30 -13 63 c-12 59 -30 84 -30 41z"/>
<path d="M377 399 c-25 -14 -21 -29 7 -29 30 0 41 14 23 28 -8 7 -18 7 -30 1z"/>
<path d="M630 400 c0 -5 7 -10 15 -10 8 0 15 5 15 10 0 6 -7 10 -15 10 -8 0
-15 -4 -15 -10z"/>
<path d="M555 389 c-4 -6 -2 -15 5 -19 17 -10 42 -1 37 14 -5 16 -34 19 -42 5z"/>
<path d="M130 380 c0 -5 5 -10 10 -10 6 0 10 5 10 10 0 6 -4 10 -10 10 -5 0
-10 -4 -10 -10z"/>
<path d="M210 380 c-12 -7 -12 -12 -2 -22 9 -9 15 -9 24 0 16 16 -2 34 -22 22z"/>
<path d="M303 373 c-7 -3 -13 -11 -13 -20 0 -17 41 -14 47 3 4 13 -16 23 -34
17z"/>
<path d="M475 370 c-4 -7 -3 -16 3 -22 14 -14 47 -6 47 12 0 18 -40 26 -50 10z"/>
<path d="M720 360 c0 -5 5 -10 11 -10 5 0 7 5 4 10 -3 6 -8 10 -11 10 -2 0 -4
-4 -4 -10z"/>
<path d="M403 353 c-18 -7 -16 -30 4 -37 19 -8 48 17 39 33 -7 11 -22 13 -43
4z"/>
<path d="M657 353 c-12 -11 -8 -23 8 -23 8 0 15 7 15 15 0 16 -12 20 -23 8z"/>
<path d="M157 344 c-8 -8 1 -24 14 -24 5 0 9 7 9 15 0 15 -12 20 -23 9z"/>
<path d="M232 323 c2 -10 10 -18 18 -18 8 0 16 8 18 18 2 12 -3 17 -18 17 -15
0 -20 -5 -18 -17z"/>
<path d="M580 325 c0 -8 9 -15 20 -15 11 0 20 7 20 15 0 8 -9 15 -20 15 -11 0
-20 -7 -20 -15z"/>
<path d="M322 317 c-10 -11 -9 -17 2 -26 18 -15 60 3 53 22 -5 18 -42 20 -55
4z"/>
<path d="M507 324 c-17 -18 -6 -35 21 -32 16 2 27 9 27 18 0 16 -36 26 -48 14z"/>
<path d="M120 304 c0 -8 5 -12 10 -9 6 4 8 11 5 16 -9 14 -15 11 -15 -7z"/>
<path d="M185 300 c-11 -17 5 -32 21 -19 7 6 11 15 8 20 -7 12 -21 11 -29 -1z"/>
<path d="M424 295 c-7 -19 3 -35 23 -35 12 0 13 -3 4 -14 -17 -20 -50 -9 -44
15 4 16 0 19 -26 19 -18 0 -34 -6 -37 -14 -3 -8 -13 -12 -23 -9 -9 2 -24 -3
-31 -12 -12 -15 -12 -19 3 -30 21 -15 22 -25 2 -25 -8 0 -15 6 -15 14 0 21
-20 30 -33 16 -9 -9 -8 -14 6 -24 9 -7 17 -17 17 -21 0 -12 44 -55 58 -55 6 0
12 -5 12 -11 0 -7 11 -9 27 -6 18 3 36 -2 55 -16 15 -11 31 -18 35 -14 3 4 1
7 -6 7 -7 0 -9 4 -6 10 3 5 -1 10 -10 10 -9 0 -13 5 -10 10 3 6 19 10 36 10
30 0 40 17 15 26 -8 3 -12 12 -9 20 3 7 -2 17 -11 20 -16 6 -23 34 -8 34 14 0
27 -15 27 -30 0 -10 10 -15 29 -15 36 0 46 22 15 33 -15 6 -19 11 -10 16 15
10 -4 36 -26 36 -12 0 -13 3 -4 13 8 10 7 17 -1 25 -17 17 -47 15 -54 -3z
m-54 -70 c0 -8 -7 -15 -15 -15 -8 0 -15 7 -15 15 0 8 7 15 15 15 8 0 15 -7 15
-15z m-30 -65 c0 -5 -4 -10 -10 -10 -5 0 -10 5 -10 10 0 6 5 10 10 10 6 0 10
-4 10 -10z m95 -20 c-3 -5 -13 -10 -21 -10 -8 0 -12 5 -9 10 3 6 13 10 21 10
8 0 12 -4 9 -10z m-55 -21 c0 -4 -7 -6 -15 -3 -8 4 -15 10 -15 15 0 4 7 6 15
3 8 -4 15 -10 15 -15z"/>
<path d="M675 299 c-10 -15 3 -25 16 -12 7 7 7 13 1 17 -6 3 -14 1 -17 -5z"/>
<path d="M260 286 c-10 -13 -9 -17 4 -22 22 -8 49 3 44 19 -7 18 -33 20 -48 3z"/>
<path d="M600 275 c0 -8 9 -15 20 -15 11 0 20 7 20 15 0 8 -9 15 -20 15 -11 0
-20 -7 -20 -15z"/>
<path d="M146 272 c-3 -6 -1 -14 5 -17 15 -10 25 3 12 16 -7 7 -13 7 -17 1z"/>
<path d="M530 266 c-10 -13 -9 -17 4 -22 22 -8 49 3 44 19 -7 18 -33 20 -48 3z"/>
<path d="M214 259 c-10 -17 13 -36 27 -22 12 12 4 33 -11 33 -5 0 -12 -5 -16
-11z"/>
<path d="M686 251 c-4 -7 -5 -15 -2 -18 9 -9 19 4 14 18 -4 11 -6 11 -12 0z"/>
<path d="M172 228 c6 -18 28 -21 28 -4 0 9 -7 16 -16 16 -9 0 -14 -5 -12 -12z"/>
<path d="M615 231 c-3 -5 -1 -12 5 -16 12 -7 30 2 30 16 0 12 -27 12 -35 0z"/>
<path d="M557 224 c-16 -16 -6 -35 16 -32 12 2 22 10 22 18 0 16 -26 25 -38
14z"/>
<path d="M150 206 c0 -9 5 -16 10 -16 6 0 10 4 10 9 0 6 -4 13 -10 16 -5 3
-10 -1 -10 -9z"/>
<path d="M680 199 c0 -5 5 -7 10 -4 6 3 10 8 10 11 0 2 -4 4 -10 4 -5 0 -10
-5 -10 -11z"/>
<path d="M218 181 c12 -11 22 -24 22 -30 0 -6 7 -11 15 -11 8 0 15 3 15 8 0
12 -47 52 -61 52 -9 -1 -5 -8 9 -19z"/>
<path d="M630 184 c0 -8 5 -12 10 -9 6 3 10 10 10 16 0 5 -4 9 -10 9 -5 0 -10
-7 -10 -16z"/>
<path d="M180 170 c0 -5 5 -10 10 -10 6 0 10 5 10 10 0 6 -4 10 -10 10 -5 0
-10 -4 -10 -10z"/>
<path d="M565 170 c-3 -6 1 -13 9 -16 9 -3 13 -10 10 -15 -3 -5 0 -9 6 -9 7 0
10 6 7 14 -3 7 0 19 6 25 8 8 5 11 -10 11 -12 0 -25 -5 -28 -10z"/>
<path d="M500 151 c0 -15 16 -22 34 -15 25 9 19 24 -9 24 -14 0 -25 -4 -25 -9z"/>
<path d="M630 149 c0 -5 5 -7 10 -4 6 3 10 8 10 11 0 2 -4 4 -10 4 -5 0 -10
-5 -10 -11z"/>
<path d="M210 140 c0 -5 5 -10 10 -10 6 0 10 5 10 10 0 6 -4 10 -10 10 -5 0
-10 -4 -10 -10z"/>
<path d="M275 120 c3 -5 10 -10 16 -10 5 0 9 5 9 10 0 6 -7 10 -16 10 -8 0
-12 -4 -9 -10z"/>
<path d="M525 120 c-3 -5 1 -10 9 -10 8 0 18 5 21 10 3 6 -1 10 -9 10 -8 0
-18 -4 -21 -10z"/>
<path d="M310 100 c0 -5 5 -10 11 -10 5 0 7 5 4 10 -3 6 -8 10 -11 10 -2 0 -4
-4 -4 -10z"/>
<path d="M468 103 c6 -2 18 -2 25 0 6 3 1 5 -13 5 -14 0 -19 -2 -12 -5z"/>
<path d="M538 93 c7 -3 16 -2 19 1 4 3 -2 6 -13 5 -11 0 -14 -3 -6 -6z"/>
<path d="M378 83 c7 -3 16 -2 19 1 4 3 -2 6 -13 5 -11 0 -14 -3 -6 -6z"/>
<path d="M488 83 c7 -3 16 -2 19 1 4 3 -2 6 -13 5 -11 0 -14 -3 -6 -6z"/>
</g>
</svg>
